    <svg width="139.94mm" height="139.94mm" version="1.1" viewBox="0 0 139.94 139.94" xmlns="http://www.w3.org/2000/svg" xmlns:osb="http://www.openswatchbook.org/uri/2009/osb">
        <g transform="translate(-34.804 -69.669)">
            <path d="m100.76 85.794-61.703 5.1554 26.387-56.014 17.658 25.429z" fill="none" stop-color="#000000" stroke-width="0"/>
            <g transform="translate(0 -34.986)" stroke="#000" stroke-linecap="round" stroke-width=".1">
                <path d="m34.925 244.48h69.85l-34.925-34.925z" style="paint-order:fill markers stroke"/>
                <path d="m39.083 242.68h61.535l-30.767-30.767z" fill="#be4a45" style="paint-order:fill markers stroke"/>
                <g transform="translate(69.85)">
                    <path d="m34.925 244.48h69.85l-34.925-34.925z" style="paint-order:fill markers stroke"/>
                    <path d="m39.083 242.68h61.535l-30.767-30.767z" fill="#be4a45" style="paint-order:fill markers stroke"/>
                </g>
                <g transform="rotate(-90,69.85,209.55)">
                    <path d="m34.925 244.48h69.85l-34.925-34.925z" style="paint-order:fill markers stroke"/>
                    <path d="m39.083 242.68h61.535l-30.767-30.767z" fill="#be4a45" style="paint-order:fill markers stroke"/>
                </g>
                <g transform="matrix(0,-1,-1,0,349.25,279.4)">
                    <path d="m35.925 244.48h69.85l-34.925-34.925z" style="paint-order:fill markers stroke"/>
                    <path d="m39.083 242.68h61.535l-30.767-30.767z" fill="#be4a45" style="paint-order:fill markers stroke"/>
                </g>
            </g>
            <g stroke="#000" stroke-linecap="round" stroke-width=".1">
                <g transform="matrix(0 -1 -1 0 314.32 209.49)">
                    <path d="m34.925 244.48h69.85l-34.925-34.925z" style="paint-order:fill markers stroke"/>
                    <path d="m39.083 242.68h61.535l-30.767-30.767z" fill="#be4a45" style="paint-order:fill markers stroke"/>
                </g>
                <g transform="rotate(-90 52.357 157.13)">
                    <path d="m34.925 244.48h69.85l-34.925-34.925z" style="paint-order:fill markers stroke"/>
                    <path d="m39.083 242.68h61.535l-30.767-30.767z" fill="#be4a45" style="paint-order:fill markers stroke"/>
                </g>
                <g transform="matrix(1 0 0 -1 -2e-6 314.26)">
                    <path d="m34.925 244.48h69.85l-34.925-34.925z" style="paint-order:fill markers stroke"/>
                    <path d="m39.083 242.68h61.535l-30.767-30.767z" fill="#be4a45" style="paint-order:fill markers stroke"/>
                </g>
                <g transform="matrix(1 0 0 -1 69.85 314.26)">
                    <path d="m34.925 244.48h69.85l-34.925-34.925z" style="paint-order:fill markers stroke"/>
                    <path d="m39.083 242.68h61.535l-30.767-30.767z" fill="#be4a45" style="paint-order:fill markers stroke"/>
                </g>
                <g transform="matrix(0 1 1 0 -139.7 34.864)">
                    <path d="m34.925 244.48h69.85l-34.925-34.925z" style="paint-order:fill markers stroke"/>
                    <path d="m39.083 242.68h61.535l-30.767-30.767z" fill="#be4a45" style="paint-order:fill markers stroke"/>
                </g>
                <g transform="rotate(90 157.19 192.06)">
                    <path d="m34.925 244.48h69.85l-34.925-34.925z" style="paint-order:fill markers stroke"/>
                    <path d="m39.083 242.68h61.535l-30.767-30.767z" fill="#be4a45" style="paint-order:fill markers stroke"/>
                </g>
            </g>
        </g>
    </svg>